<?xml version="1.0" encoding="utf-8"?>
<!-- Generator: Adobe Illustrator 26.3.1, SVG Export Plug-In . SVG Version: 6.00 Build 0)  -->
<svg version="1.1" id="Layer_1" xmlns:svgjs="http://svgjs.com/svgjs"
	 xmlns="http://www.w3.org/2000/svg" xmlns:xlink="http://www.w3.org/1999/xlink" x="0px" y="0px" viewBox="0 0 512 512"
	 style="enable-background:new 0 0 512 512;" xml:space="preserve">
<style type="text/css">
	.st0{fill-rule:evenodd;clip-rule:evenodd;fill:#D4E1F4;}
	.st1{fill-rule:evenodd;clip-rule:evenodd;fill:#FFFFFF;}
	.st2{fill:#575858;}
	.st3{fill-rule:evenodd;clip-rule:evenodd;fill:#575858;}
</style>
<path id="Path" class="st0" d="M136.5,42.7h238.9c14.1,0,25.6,11.5,25.6,25.6v8.5H110.9v-8.5C110.9,54.1,122.4,42.7,136.5,42.7z"/>
<path id="Path_00000045603688241590703290000006491499371408558470_" class="st0" d="M85.3,76.8h341.3c14.1,0,25.6,11.5,25.6,25.6
	v17.1c0,4.7-3.8,8.5-8.5,8.5H68.3c-4.7,0-8.5-3.8-8.5-8.5v-17.1C59.7,88.3,71.2,76.8,85.3,76.8z"/>
<path id="Path_00000181772219636408043000000008177230445360518312_" class="st0" d="M426.7,76.8h-25.6c14.1,0,25.6,11.5,25.6,25.6
	v17.1c0,4.7-3.8,8.5-8.5,8.5h25.6c4.7,0,8.5-3.8,8.5-8.5v-17.1C452.3,88.3,440.8,76.8,426.7,76.8z"/>
<path id="Path_00000020365473249578637280000011862642542288270503_" class="st0" d="M361.2,503.5H150.8c-22.4,0-41-17.4-42.6-39.8
	L85.3,128h341.3l-22.9,335.7C402.3,486.1,383.6,503.5,361.2,503.5z"/>
<path id="Path_00000137820720015236246070000010535169375402520989_" class="st0" d="M401.1,128l-22.9,335.7
	c-1.5,22.4-20.1,39.8-42.6,39.8h25.6c22.4,0,41-17.4,42.6-39.8L426.7,128H401.1z"/>
<path id="Rectangle" class="st0" d="M256,179.2L256,179.2c9.4,0,17.1,7.6,17.1,17.1v221.9c0,9.4-7.6,17.1-17.1,17.1l0,0
	c-9.4,0-17.1-7.6-17.1-17.1V196.3C238.9,186.8,246.6,179.2,256,179.2z"/>
<path id="Rectangle_00000127009105756035914560000002562897055185289392_" class="st0" d="M341.3,179.2L341.3,179.2
	c9.4,0,17.1,7.6,17.1,17.1v221.9c0,9.4-7.6,17.1-17.1,17.1l0,0c-9.4,0-17.1-7.6-17.1-17.1V196.3
	C324.3,186.8,331.9,179.2,341.3,179.2z"/>
<path id="Rectangle_00000029754936260952304770000014117613173909516197_" class="st0" d="M170.7,179.2L170.7,179.2
	c9.4,0,17.1,7.6,17.1,17.1v221.9c0,9.4-7.6,17.1-17.1,17.1l0,0c-9.4,0-17.1-7.6-17.1-17.1V196.3
	C153.6,186.8,161.2,179.2,170.7,179.2z"/>
<path id="Path_00000122711191706776586810000000558641328357221812_" class="st1" d="M136.5,68.3c0-14.1,11.5-25.6,25.6-25.6h-25.6
	c-14.1,0-25.6,11.5-25.6,25.6v8.5h25.6V68.3z"/>
<path id="Path_00000116221082717570282100000013290449831829874564_" class="st1" d="M133.8,463.7L110.9,128h-17
	c-4.7,0-8.5-3.8-8.5-8.5v-17.1c0-14.1,11.5-25.6,25.6-25.6H85.3c-14.1,0-25.6,11.5-25.6,25.6v17.1c0,4.7,3.8,8.5,8.5,8.5h17.1
	l22.9,335.7c1.5,22.4,20.1,39.8,42.6,39.8h25.6C154,503.5,135.3,486.1,133.8,463.7z"/>
<path id="Rectangle_00000045614351997489763680000012427402587630497945_" class="st1" d="M95.1,396.3l17-1.2l4.6,68.1l-17,1.2
	L95.1,396.3z"/>
<g>
	<path id="Shape" class="st2" d="M460.8,102.4c0-18.9-15.3-34.1-34.1-34.1h-17.1c0-18.9-15.3-34.1-34.1-34.1h-68.3v-8.5
		c0-14.1-11.5-25.6-25.6-25.6h-51.2c-14.1,0-25.6,11.5-25.6,25.6v8.5h-68.3c-18.9,0-34.1,15.3-34.1,34.1H85.3
		c-18.9,0-34.1,15.3-34.1,34.1v17.1c0,9.4,7.6,17.1,17.1,17.1h9.1l17.7,259.6c0.3,4.7,4.4,8.3,9.1,8s8.3-4.4,8-9.1L94.5,136.5h323.1
		l-22.3,326.6c-1.3,17.9-16.1,31.8-34.1,31.8H150.8c-17.9-0.1-32.8-13.9-34.1-31.8c-0.2-3.1-2-5.8-4.7-7.2c-2.8-1.4-6-1.1-8.6,0.6
		c-2.5,1.7-4,4.7-3.7,7.8c0.8,11.4,5.4,22.2,13,30.7H76.8c-4.7,0-8.5,3.8-8.5,8.5s3.8,8.5,8.5,8.5h358.4c4.7,0,8.5-3.8,8.5-8.5
		s-3.8-8.5-8.5-8.5h-35.9c7.6-8.5,12.2-19.3,13-30.7l22.3-327.7h9.1c9.4,0,17.1-7.6,17.1-17.1L460.8,102.4L460.8,102.4z M221.9,25.6
		c0-4.7,3.8-8.5,8.5-8.5h51.2c4.7,0,8.5,3.8,8.5,8.5v8.5h-68.3L221.9,25.6L221.9,25.6z M136.5,51.2h238.9c9.4,0,17.1,7.6,17.1,17.1
		h-273C119.5,58.8,127.1,51.2,136.5,51.2z M426.7,119.5H68.3v-17.1c0-9.4,7.6-17.1,17.1-17.1h341.3c9.4,0,17.1,7.6,17.1,17.1v17.1
		H426.7z"/>
	<path id="Path_00000041296903368820742690000011078612686467672752_" class="st3" d="M106.5,438.2c3.4-0.2,6.4-2.5,7.5-5.8
		s0.1-6.9-2.5-9.2c-2.6-2.3-6.3-2.8-9.4-1.2c-3.1,1.5-5,4.8-4.7,8.2C97.7,434.9,101.8,438.5,106.5,438.2L106.5,438.2z"/>
	<path id="Shape_00000159453647950737550870000014346101173500834951_" class="st2" d="M281.6,418.1V196.3
		c0-14.1-11.5-25.6-25.6-25.6s-25.6,11.5-25.6,25.6v221.9c0,14.1,11.5,25.6,25.6,25.6S281.6,432.3,281.6,418.1z M247.5,418.1V196.3
		c0-4.7,3.8-8.5,8.5-8.5c4.7,0,8.5,3.8,8.5,8.5v221.9c0,4.7-3.8,8.5-8.5,8.5S247.5,422.8,247.5,418.1z"/>
	<path id="Shape_00000028295970567447397460000005222802328973142670_" class="st2" d="M366.9,418.1V196.3
		c0-14.1-11.5-25.6-25.6-25.6s-25.6,11.5-25.6,25.6v221.9c0,14.1,11.5,25.6,25.6,25.6S366.9,432.3,366.9,418.1z M332.8,418.1V196.3
		c0-4.7,3.8-8.5,8.5-8.5s8.5,3.8,8.5,8.5v221.9c0,4.7-3.8,8.5-8.5,8.5S332.8,422.8,332.8,418.1z"/>
	<path id="Shape_00000090266133322547514600000000451926656896237973_" class="st2" d="M170.7,443.7c14.1,0,25.6-11.5,25.6-25.6
		V196.3c0-14.1-11.5-25.6-25.6-25.6s-25.6,11.5-25.6,25.6v221.9C145.1,432.3,156.5,443.7,170.7,443.7z M162.1,196.3
		c0-4.7,3.8-8.5,8.5-8.5s8.5,3.8,8.5,8.5v221.9c0,4.7-3.8,8.5-8.5,8.5s-8.5-3.8-8.5-8.5V196.3z"/>
	<path id="Path_00000116197110645964845240000013189391373163318408_" class="st3" d="M477.9,494.9h-8.5c-4.7,0-8.5,3.8-8.5,8.5
		s3.8,8.5,8.5,8.5h8.5c4.7,0,8.5-3.8,8.5-8.5C486.4,498.8,482.6,494.9,477.9,494.9z"/>
	<path id="Path_00000075131642939538646120000007158091457068777369_" class="st3" d="M42.7,494.9h-8.5c-4.7,0-8.5,3.8-8.5,8.5
		s3.8,8.5,8.5,8.5h8.5c4.7,0,8.5-3.8,8.5-8.5C51.2,498.8,47.4,494.9,42.7,494.9z"/>
</g>
</svg>
