<?xml version="1.0" encoding="utf-8"?>
<!-- Generator: Adobe Illustrator 26.3.1, SVG Export Plug-In . SVG Version: 6.00 Build 0)  -->
<svg version="1.1" id="Layer_1" xmlns:svgjs="http://svgjs.com/svgjs"
	 xmlns="http://www.w3.org/2000/svg" xmlns:xlink="http://www.w3.org/1999/xlink" x="0px" y="0px" viewBox="0 0 512 512"
	 style="enable-background:new 0 0 512 512;" xml:space="preserve">
<style type="text/css">
	.st0{fill:#575858;}
</style>
<g>
	<path class="st0" d="M512,257c0,50.5-15,99.7-43.4,142.1c-3.9,5.8-10.2,8.9-16.6,8.9c-3.8,0-7.7-1.1-11.1-3.4
		c-9.2-6.1-11.6-18.6-5.5-27.7C459.3,341,472,299.6,472,257c0-18.3-2.3-36.5-6.8-54c-2.8-10.7,3.7-21.6,14.4-24.4
		c10.7-2.8,21.6,3.7,24.4,14.4C509.3,213.8,512,235.3,512,257z M367.7,441.9C334.1,462.2,295.5,473,256,473
		c-119.1,0-216-96.9-216-216S136.9,41,256,41c44.1,0,86.5,13.2,122.6,38.2c9.1,6.3,21.5,4,27.8-5.1s4-21.5-5.1-27.8
		C358.5,16.6,308.3,1,256,1C187.6,1,123.3,27.6,75,76S0,188.6,0,257s26.6,132.7,75,181s112.6,75,181,75c46.8,0,92.6-12.8,132.5-36.9
		c9.4-5.7,12.5-18,6.7-27.5C389.5,439.2,377.2,436.2,367.7,441.9z M257.9,315c-3.2,0.1-6.1-1-8.4-3.2l-104.7-99.3
		c-8-7.6-20.7-7.3-28.3,0.8c-7.6,8-7.3,20.7,0.8,28.3L222,340.8c9.7,9.2,22.2,14.2,35.4,14.2c0.7,0,1.4,0,2.1,0
		c14-0.6,26.9-6.6,36.3-17.1c0.2-0.3,0.5-0.5,0.7-0.8l211-262.5c6.9-8.6,5.6-21.2-3.1-28.1c-8.6-6.9-21.2-5.6-28.1,3.1l-210.6,262
		C263.7,313.6,260.9,314.9,257.9,315z"/>
</g>
</svg>
