<?xml version="1.0" encoding="utf-8"?>
<!-- Generator: Adobe Illustrator 26.2.1, SVG Export Plug-In . SVG Version: 6.00 Build 0)  -->
<svg version="1.1" id="Layer_1" xmlns="http://www.w3.org/2000/svg" xmlns:xlink="http://www.w3.org/1999/xlink" x="0px" y="0px"
	 viewBox="0 0 64.1 64.1" style="enable-background:new 0 0 64.1 64.1;" xml:space="preserve">
<style type="text/css">
	.st0{fill:#575858;}
</style>
<g id="category" transform="translate(116.064 126.193)">
	<g id="Group_102" transform="translate(0 0)">
		<path id="Path_149" class="st0" d="M-90.1-93h-21c-2.7,0-4.9,2.2-4.9,4.9v21c0,2.7,2.2,4.9,4.9,4.9h21c2.7,0,4.9-2.2,4.9-4.9v-21
			C-85.2-90.8-87.4-93-90.1-93z M-87.8-67c0,1.2-1,2.3-2.3,2.3h-21c-1.2,0-2.3-1-2.3-2.3v-21c0-1.2,1-2.3,2.3-2.3h21
			c1.2,0,2.3,1,2.3,2.3L-87.8-67z"/>
		<path id="Path_150" class="st0" d="M-90.1-126.2h-21c-2.7,0-4.9,2.2-4.9,4.9v21c0,2.7,2.2,4.9,4.9,4.9h21c2.7,0,4.9-2.2,4.9-4.9
			v-21C-85.2-124-87.4-126.2-90.1-126.2L-90.1-126.2z M-87.8-100.2c0,1.2-1,2.3-2.3,2.3h-21c-1.2,0-2.3-1-2.3-2.3v-21
			c0-1.2,1-2.3,2.3-2.3h21c1.2,0,2.3,1,2.3,2.3V-100.2z"/>
		<path id="Path_151" class="st0" d="M-56.9-126.2h-21c-2.7,0-4.9,2.2-4.9,4.9v21c0,2.7,2.2,4.9,4.9,4.9h21c2.7,0,4.9-2.2,4.9-4.9
			v-21C-52-124-54.2-126.2-56.9-126.2L-56.9-126.2z M-54.6-100.2c0,1.2-1,2.3-2.3,2.3h-21c-1.2,0-2.3-1-2.3-2.3v-21
			c0-1.2,1-2.3,2.3-2.3h21c1.2,0,2.3,1,2.3,2.3L-54.6-100.2L-54.6-100.2z"/>
	</g>
	<path id="Path_152" class="st0" d="M-53.7-91.2c-1-0.4-2.3-0.2-3.1,0.6l-23.1,23.1c-0.8,0.8-1.1,2-0.6,3.1c0.4,1,1.4,1.7,2.6,1.7
		h21.1c2.7,0,4.9-2.2,4.9-4.9v-21.1C-52-89.8-52.7-90.8-53.7-91.2z M-54.6-67.6c0,1.2-1,2.3-2.3,2.3h-21c0,0-0.1,0-0.1-0.1
		c0-0.1,0-0.1,0-0.2l23.1-23.1c0,0,0.1-0.1,0.1-0.1c0,0,0,0,0.1,0c0.1,0,0.1,0.1,0.1,0.1L-54.6-67.6L-54.6-67.6z"/>
</g>
</svg>
