<?xml version="1.0" encoding="utf-8"?>
<!-- Generator: Adobe Illustrator 26.2.1, SVG Export Plug-In . SVG Version: 6.00 Build 0)  -->
<svg version="1.1" id="Layer_1" xmlns="http://www.w3.org/2000/svg" xmlns:xlink="http://www.w3.org/1999/xlink" x="0px" y="0px"
	 viewBox="0 0 44.5 63.4" style="enable-background:new 0 0 44.5 63.4;" xml:space="preserve">
<style type="text/css">
	.st0{fill:#575858;}
</style>
<g id="Group_103" transform="translate(126.619)">
	<g id="flask" transform="translate(0)">
		<g id="Group_67">
			<path id="Path_96" class="st0" d="M-111.5,13.9c2.2,0,4-1.8,4-4s-1.8-4-4-4c-2.2,0-4,1.8-4,4l0,0
				C-115.5,12.1-113.7,13.9-111.5,13.9z M-111.5,8.3c0.8,0,1.6,0.7,1.6,1.6c0,0.9-0.7,1.6-1.6,1.6c-0.8,0-1.6-0.7-1.6-1.6l0,0
				C-113,9-112.3,8.3-111.5,8.3z"/>
			<path id="Path_97" class="st0" d="M-98.8,11.1c3.1,0,5.6-2.5,5.6-5.6S-95.7,0-98.8,0c-3.1,0-5.6,2.5-5.6,5.6l0,0
				C-104.3,8.6-101.8,11.1-98.8,11.1z M-98.8,2.5c1.7,0,3.1,1.4,3.1,3.1s-1.4,3.1-3.1,3.1s-3.1-1.4-3.1-3.1
				C-101.9,3.9-100.5,2.5-98.8,2.5L-98.8,2.5z"/>
			<path id="Path_98" class="st0" d="M-93.7,46c-0.3-0.6-1.1-0.8-1.7-0.5c-2.3,1.4-5.3,0.6-8.4-0.2c-3.4-0.9-7.3-1.9-10.8,0.2
				c-0.2,0.1-0.3,0.3-0.4,0.5l-5.2,9c-0.4,0.7-0.4,1.6,0,2.3c0.4,0.7,1.2,1.1,2,1.1h8.4c0.7,0,1.2-0.5,1.3-1.2s-0.5-1.2-1.2-1.3
				c0,0-0.1,0-0.1,0h-8l4.9-8.4c2.6-1.3,5.6-0.6,8.7,0.2c3.1,0.8,6.2,1.6,9.1,0.5l4.5,7.7h-8c-0.7,0-1.2,0.5-1.3,1.2
				s0.5,1.2,1.2,1.3c0,0,0.1,0,0.1,0h8.4c0.8,0,1.6-0.4,2-1.1c0.4-0.7,0.4-1.6,0-2.3L-93.7,46z"/>
			<path id="Path_99" class="st0" d="M-82.8,54.7l-15.3-26.3v-4.9c1.9-0.7,2.9-2.8,2.3-4.7c-0.5-1.5-1.9-2.5-3.5-2.5h-9.9
				c-2.1,0-3.7,1.7-3.7,3.7c0,1.6,1,3,2.5,3.5v4.9l-15.1,25.8c-0.7,1-1,2.1-1,3.3c0,3.2,2.6,5.8,5.8,5.8h32.9c1,0,2-0.3,2.9-0.8
				C-82.2,61-81.2,57.5-82.8,54.7C-82.8,54.7-82.8,54.7-82.8,54.7L-82.8,54.7z M-109.3,18.8h9.9c0.7,0,1.2,0.5,1.3,1.2
				s-0.5,1.2-1.2,1.3c0,0-0.1,0-0.1,0h-9.9c-0.7,0-1.2-0.5-1.3-1.2S-110,18.8-109.3,18.8C-109.3,18.8-109.3,18.8-109.3,18.8z
				 M-84.7,58.4c-0.2,0.8-0.8,1.6-1.6,2c-0.5,0.3-1.1,0.5-1.7,0.5h-32.9c-1.8,0-3.3-1.5-3.3-3.3c0-0.7,0.2-1.3,0.6-1.9
				c0,0,0-0.1,0.1-0.1l15.2-26.2c0.1-0.2,0.2-0.4,0.2-0.6v-5h7.4v5c0,0.2,0.1,0.4,0.2,0.6L-85,56C-84.5,56.7-84.4,57.6-84.7,58.4
				L-84.7,58.4z"/>
			<path id="Path_100" class="st0" d="M-104.3,55.9L-104.3,55.9c-0.7,0-1.2,0.6-1.2,1.2s0.6,1.2,1.2,1.2s1.2-0.5,1.2-1.2
				C-103.1,56.5-103.7,55.9-104.3,55.9L-104.3,55.9L-104.3,55.9z"/>
		</g>
	</g>
</g>
</svg>
