<?xml version="1.0" encoding="utf-8"?>
<!-- Generator: Adobe Illustrator 26.2.1, SVG Export Plug-In . SVG Version: 6.00 Build 0)  -->
<svg version="1.1" id="Layer_1" xmlns="http://www.w3.org/2000/svg" xmlns:xlink="http://www.w3.org/1999/xlink" x="0px" y="0px"
	 viewBox="0 0 79.3 58.2" style="enable-background:new 0 0 79.3 58.2;" xml:space="preserve">
<style type="text/css">
	.st0{fill:#575858;}
</style>
<g id="pouring" transform="translate(0 189.4)">
	<g id="Group_105" transform="translate(26.015 0)">
		<g id="Group_104">
			<path id="Path_153" class="st0" d="M53-170.8L53-170.8c0-0.1-0.1-0.2-0.1-0.2c0,0,0-0.1,0-0.1c0-0.1,0-0.1,0-0.1l0,0
				c-0.5-1.1-1.3-2-2.3-2.6l-18.9-10.9c-0.6-0.3-1.3-0.1-1.6,0.4c-0.3,0.6-0.1,1.2,0.4,1.6l18.8,10.8H36.3l-11.2-6.4
				c-0.6-0.3-1.3-0.1-1.6,0.4l-3.5,6H8.9l-0.1-0.8c0-0.4-0.2-0.7-0.6-0.9l-1.9-1.1l5.5-9.6l1.9,1.1c0.3,0.2,0.7,0.2,1.1,0l5.8-2.8
				c1.5-0.7,3.2-0.6,4.6,0.2l1.1,0.6c0.6,0.3,1.3,0.1,1.6-0.4s0.1-1.3-0.4-1.6l-1.1-0.6c-2.1-1.2-4.6-1.3-6.8-0.2l-5.2,2.5l-1.4-0.8
				l0.8-1.3c0.3-0.6,0.1-1.3-0.4-1.6c-0.6-0.3-1.3-0.1-1.6,0.4l-0.8,1.3L8.4-189c-0.6-0.3-1.3-0.1-1.6,0.4L0.2-177
				c-0.3,0.6-0.1,1.3,0.4,1.6l2.6,1.5l-0.8,1.3c-0.3,0.6-0.1,1.3,0.4,1.6c0.6,0.3,1.3,0.1,1.6-0.4l0,0l0.8-1.3l1.4,0.8l0.4,5.8
				c0.1,1.4,0.7,2.8,1.5,4c0,0,0,0,0,0.1l0,0.1c0.6,0.7,1.2,1.2,2,1.6l3,1.7c0,0,0.1,0.1,0.1,0.1l15.4,8.9c0.2,0.1,0.4,0.2,0.5,0.3
				c0.1,0.1,0.2,0.1,0.4,0.2l4.7,2.7c0.2,0.1,0.3,0.2,0.5,0.2c0,0,0.1,0.1,0.2,0.1l0,0c0.7,0.3,1.3,0.4,2,0.4c0.5,0,1-0.1,1.4-0.2
				c1.2-0.3,2.2-1,2.9-1.9l0,0c0.1-0.1,0.1-0.2,0.2-0.2l0-0.1c0.1-0.1,0.1-0.2,0.2-0.3v0l10.3-17.9c0-0.1,0.1-0.1,0.1-0.2
				c0,0,0-0.1,0-0.1c0-0.1,0-0.1,0.1-0.2c0,0,0-0.1,0-0.1c0-0.1,0-0.1,0.1-0.2c0,0,0-0.1,0-0.1c0-0.1,0-0.1,0.1-0.2l0,0
				C53.4-168.5,53.4-169.6,53-170.8z M4.3-175.9l-1.6-0.9l5.5-9.6l1.6,0.9L4.3-175.9z M11.8-162.4c-1.4-0.8-2.3-2.3-2.4-3.9
				l-0.2-3.3h9.7l-4.8,8.4L11.8-162.4z M30-151.9l-14.1-8.1l9.1-15.7l14,8.1L30-151.9z M51-168.7C51-168.7,51-168.7,51-168.7
				c0,0.1,0,0.2,0,0.3l0,0.1c0,0.1,0,0.2-0.1,0.2c0,0,0,0,0,0.1c0,0.1-0.1,0.2-0.1,0.2c0,0,0,0,0,0.1c0,0.1-0.1,0.2-0.1,0.3
				l-10.3,17.9l0,0c0,0.1-0.1,0.2-0.2,0.2l0,0c-0.8,1.1-2.2,1.5-3.5,1.1l0,0c-0.1,0-0.1-0.1-0.2-0.1c0,0-0.1,0-0.1-0.1l0,0
				c-0.1,0-0.2-0.1-0.2-0.1l-4-2.3l9.7-16.8c0.3-0.6,0.1-1.3-0.4-1.6c0,0-0.1,0-0.1-0.1c-0.2-0.1-0.4-0.2-0.5-0.3l-0.2-0.1h10.6
				C51-169.3,51-169,51-168.7L51-168.7z"/>
		</g>
	</g>
	<g id="Group_107" transform="translate(0 44.257)">
		<g id="Group_106">
			<path id="Path_154" class="st0" d="M39.6-189.4H1.2c-0.6,0-1.2,0.5-1.2,1.2s0.5,1.2,1.2,1.2h11.5v1.5c0,5.6,4.5,10.2,10.1,10.2
				c1.5,0,2.9-0.3,4.2-0.9l14.1-6.4c1.8-0.8,2.5-2.9,1.7-4.6C42.2-188.6,41-189.4,39.6-189.4L39.6-189.4z M40.1-184.9l-14,6.4
				c-3.9,1.8-8.6,0.1-10.4-3.9c-0.5-1-0.7-2.1-0.7-3.2v-1.5h24.6c0.6,0,1.2,0.5,1.2,1.2C40.8-185.5,40.5-185,40.1-184.9L40.1-184.9z
				"/>
		</g>
	</g>
	<g id="Group_109" transform="translate(19.501 25.929)">
		<g id="Group_108">
			<path id="Path_155" class="st0" d="M6.2-189.1c-0.4-0.4-1.1-0.4-1.5,0c-0.6,0.5-1.1,1.1-1.7,1.6c-0.4,0.5-0.4,1.2,0.1,1.6
				c0.5,0.4,1.2,0.4,1.6-0.1c0,0,0,0,0,0c0.2-0.3,0.4-0.5,0.7-0.7c0.4,0.4,0.9,0.9,1.3,1.4c1.1,1.3,1.7,2.8,1.9,4.5
				c0,1.7-1.4,3.1-3.1,3.1s-3.1-1.4-3.1-3.1c0-0.5,0.1-1.1,0.2-1.5c0.2-0.6-0.2-1.3-0.8-1.5s-1.3,0.1-1.5,0.8
				c-0.2,0.7-0.3,1.5-0.3,2.2c0,3,2.5,5.5,5.5,5.5c3,0,5.5-2.4,5.5-5.5C10.9-185.1,6.4-189,6.2-189.1z"/>
		</g>
	</g>
</g>
</svg>
