<?xml version="1.0" encoding="utf-8"?>
<!-- Generator: Adobe Illustrator 26.2.1, SVG Export Plug-In . SVG Version: 6.00 Build 0)  -->
<svg version="1.1" id="Layer_1" xmlns="http://www.w3.org/2000/svg" xmlns:xlink="http://www.w3.org/1999/xlink" x="0px" y="0px"
	 viewBox="0 0 73.9 74" style="enable-background:new 0 0 73.9 74;" xml:space="preserve">
<style type="text/css">
	.st0{fill:#575858;}
</style>
<g id="medicine" transform="translate(219.231 68.686)">
	<g id="Group_48" transform="translate(15.876 15.883)">
		<g id="Group_47">
			<path id="Path_86" class="st0" d="M-201-67.8c-2.4-2.4-8,1-12.2,5.2s-7.6,9.8-5.2,12.2c0.6,0.5,1.3,0.8,2.1,0.8
				c2.8,0,6.9-2.8,10.1-6C-202-59.8-198.6-65.4-201-67.8z M-207.9-57.4c-4.6,4.6-8.3,5.7-8.7,5.2s0.6-4.1,5.2-8.7
				c4-4,7.3-5.3,8.4-5.3c0.1,0,0.2,0,0.4,0.1C-202.3-65.7-203.4-62-207.9-57.4z"/>
		</g>
	</g>
	<g id="Group_50">
		<g id="Group_49">
			<path id="Path_87" class="st0" d="M-185.1-52L-198.1-65c-4.8-4.8-12.6-4.9-17.4-0.1s-4.9,12.6-0.1,17.4c0,0,0.1,0.1,0.1,0.1
				l13.1,13.1c0.5,0.5,1.3,0.5,1.7,0c0.5-0.5,0.5-1.3,0-1.7l0,0c-0.4-0.5,0.6-4.1,5.2-8.7s8.3-5.7,8.7-5.2c0.5,0.5,1.3,0.5,1.7,0
				C-184.6-50.7-184.6-51.5-185.1-52L-185.1-52z M-197.3-46.7c-2.6,2.6-4.9,5.7-5.7,8.2l-10.9-10.9c-3.9-3.8-3.9-10.1,0-13.9
				c3.9-3.8,10.1-3.8,13.9,0l10.9,10.9C-191.6-51.6-194.7-49.3-197.3-46.7z"/>
		</g>
	</g>
	<g id="Group_52" transform="translate(39.014 15.881)">
		<g id="Group_51">
			<path id="Path_88" class="st0" d="M-206.2-62.6c-4.2-4.2-9.8-7.6-12.2-5.2s1,8,5.2,12.2c3.2,3.2,7.3,6,10.1,6
				c0.8,0,1.5-0.2,2.1-0.8C-198.6-52.8-202-58.4-206.2-62.6z M-202.7-52.2c-0.4,0.4-4.1-0.7-8.7-5.2s-5.7-8.3-5.2-8.7
				s4.1,0.7,8.7,5.2S-202.2-52.6-202.7-52.2L-202.7-52.2z"/>
		</g>
	</g>
	<g id="Group_54" transform="translate(39.445 0.001)">
		<g id="Group_53">
			<path id="Path_89" class="st0" d="M-188.3-65c-4.8-4.8-12.6-4.8-17.4,0l0,0L-218.8-52c-0.5,0.5-0.5,1.3,0,1.7s1.3,0.5,1.7,0
				c0.4-0.4,4.1,0.7,8.7,5.2s5.7,8.3,5.2,8.7c-0.5,0.5-0.5,1.3,0,1.7s1.3,0.5,1.7,0l13.1-13.1C-183.5-52.4-183.5-60.2-188.3-65z
				 M-190.1-49.3l-10.9,10.9c-0.8-2.6-3.1-5.7-5.7-8.2s-5.7-4.9-8.2-5.7l10.9-10.9c3.9-3.8,10.1-3.8,13.9,0S-186.2-53.2-190.1-49.3z
				"/>
		</g>
	</g>
	<g id="Group_56" transform="translate(27.09 35.719)">
		<g id="Group_55">
			<path id="Path_90" class="st0" d="M-215.5-68.6c-2,0-3.7,1.7-3.7,3.7c0,2,1.7,3.7,3.7,3.7s3.7-1.7,3.7-3.7l0,0
				C-211.8-67-213.4-68.6-215.5-68.6z M-215.5-63.7c-0.7,0-1.2-0.5-1.2-1.2s0.6-1.2,1.2-1.2s1.2,0.6,1.2,1.2l0,0
				C-214.2-64.2-214.8-63.7-215.5-63.7z"/>
		</g>
	</g>
	<g id="Group_58" transform="translate(36.944 40.646)">
		<g id="Group_57">
			<path id="Path_91" class="st0" d="M-214.2-68.6c-2.7,0-4.9,2.2-4.9,4.9s2.2,4.9,4.9,4.9s4.9-2.2,4.9-4.9
				C-209.3-66.4-211.5-68.6-214.2-68.6z M-214.2-61.2c-1.4,0-2.5-1.1-2.5-2.5c0-1.4,1.1-2.5,2.5-2.5s2.5,1.1,2.5,2.5
				C-211.8-62.3-212.9-61.2-214.2-61.2L-214.2-61.2z"/>
		</g>
	</g>
	<g id="Group_60" transform="translate(38.175 55.426)">
		<g id="Group_59">
			<path id="Path_92" class="st0" d="M-215.5-68.6c-2,0-3.7,1.7-3.7,3.7s1.7,3.7,3.7,3.7s3.7-1.7,3.7-3.7S-213.4-68.6-215.5-68.6
				L-215.5-68.6z M-215.5-63.7c-0.7,0-1.2-0.5-1.2-1.2s0.6-1.2,1.2-1.2s1.2,0.6,1.2,1.2l0,0C-214.2-64.2-214.8-63.7-215.5-63.7z"/>
		</g>
	</g>
	<g id="Group_62" transform="translate(34.48 27.097)">
		<g id="Group_61">
			<path id="Path_93" class="st0" d="M-214.2-68.6c-2.7,0-4.9,2.2-4.9,4.9s2.2,4.9,4.9,4.9c2.7,0,4.9-2.2,4.9-4.9
				C-209.3-66.4-211.5-68.6-214.2-68.6z M-214.2-61.2c-1.4,0-2.5-1.1-2.5-2.5c0-1.4,1.1-2.5,2.5-2.5s2.5,1.1,2.5,2.5l0,0
				C-211.8-62.3-212.9-61.2-214.2-61.2z"/>
		</g>
	</g>
	<g id="Group_64" transform="translate(25.858 48.036)">
		<g id="Group_63">
			<path id="Path_94" class="st0" d="M-214.2-68.6c-2.7,0-4.9,2.2-4.9,4.9s2.2,4.9,4.9,4.9c2.7,0,4.9-2.2,4.9-4.9
				C-209.3-66.4-211.5-68.6-214.2-68.6z M-214.2-61.2c-1.4,0-2.5-1.1-2.5-2.5c0-1.4,1.1-2.5,2.5-2.5s2.5,1.1,2.5,2.5
				C-211.8-62.3-212.9-61.2-214.2-61.2z"/>
		</g>
	</g>
	<g id="Group_66" transform="translate(28.322 64.048)">
		<g id="Group_65">
			<path id="Path_95" class="st0" d="M-214.2-68.6c-2.7,0-4.9,2.2-4.9,4.9s2.2,4.9,4.9,4.9c2.7,0,4.9-2.2,4.9-4.9
				C-209.3-66.4-211.5-68.6-214.2-68.6z M-214.2-61.2c-1.4,0-2.5-1.1-2.5-2.5c0-1.4,1.1-2.5,2.5-2.5s2.5,1.1,2.5,2.5
				C-211.8-62.3-212.9-61.2-214.2-61.2L-214.2-61.2z"/>
		</g>
	</g>
</g>
</svg>
