<?xml version="1.0" encoding="utf-8"?>
<!-- Generator: Adobe Illustrator 26.2.1, SVG Export Plug-In . SVG Version: 6.00 Build 0)  -->
<svg version="1.1" id="Layer_1" xmlns="http://www.w3.org/2000/svg" xmlns:xlink="http://www.w3.org/1999/xlink" x="0px" y="0px"
	 viewBox="0 0 60.5 60.5" style="enable-background:new 0 0 60.5 60.5;" xml:space="preserve">
<style type="text/css">
	.st0{fill:#575858;}
</style>
<g id="cosmetics" transform="translate(9.406 65.118)">
	<path id="Path_131" class="st0" d="M-5.4-39.2c-0.5,0-0.9,0.4-0.9,0.9l0,0v4c0,0.5,0.4,0.9,0.9,0.9c0.5,0,0.8-0.4,0.9-0.9v-4
		C-4.6-38.8-4.9-39.2-5.4-39.2z"/>
	<path id="Path_132" class="st0" d="M5.8-35.8c-4.7,0-8.6,3.8-8.6,8.5s3.8,8.5,8.6,8.5s8.5-3.8,8.5-8.5S10.5-35.8,5.8-35.8L5.8-35.8
		z M5.8-20.5c-3.7,0-6.8-3-6.8-6.8C-1-31,2-34,5.8-34c3.7,0,6.8,3,6.8,6.8C12.5-23.5,9.5-20.5,5.8-20.5L5.8-20.5z"/>
	<path id="Path_133" class="st0" d="M47.2-22.2h-12l0.1-0.9v0L36.5-35v0l1-9.7c0-0.5-0.3-0.9-0.8-1c0,0-0.1,0-0.1,0H20.4
		c-0.9-2.1-2.8-3.7-5.1-4.1v-4.6c0-0.5-0.4-0.9-0.9-0.9c0,0,0,0,0,0H8.2v-3.8h5.1c0.5,0,0.9-0.4,0.9-0.9c0-2.2-1.7-4-3.8-4.3l-8-0.9
		c-0.5-0.1-0.9,0.3-1,0.8c0,0,0,0.1,0,0.1v4.2c0,0.5,0.4,0.9,0.9,0.9h1.1v3.8h-6.2c-0.5,0-0.9,0.4-0.9,0.9l0,0v4.6
		c-3.3,0.6-5.7,3.5-5.7,6.9v34.4c0,2.2,1.8,4,4,4H17c0.8,0,1.5-0.2,2.2-0.7c0.1,0.4,0.5,0.7,0.9,0.7h30.2c0.5,0,0.9-0.4,0.9-0.9
		v-12.8C51.1-20.5,49.3-22.2,47.2-22.2L47.2-22.2z M49.3-18.3v0.1H31.2v-0.1c0-1.2,1-2.2,2.2-2.2h13.8
		C48.3-20.4,49.3-19.5,49.3-18.3L49.3-18.3z M33.4-22.2c-2.2,0-4,1.8-4,4v5.2h-8.5l-1-9.3h13.5L33.4-22.2L33.4-22.2z M18.7-34.2
		h15.9l-1,10.1H19.7l-0.2-1.5L18.7-34.2z M34.8-36H18.5l-0.8-7.9h18L34.8-36z M3.1-63.2l7,0.8c0.9,0.1,1.8,0.7,2.1,1.6H3.1V-63.2z
		 M5.1-59.1h1.3v3.8H5.1V-59.1z M13.5-53.5v3.5H-1.9v-3.5H13.5z M17-6.4H-5.4c-1.2,0-2.2-1-2.2-2.2v-34.4c0-2.9,2.3-5.2,5.2-5.2
		h16.3c1.8,0,3.5,0.9,4.4,2.5h-1.7c-0.5,0-0.9,0.4-0.9,0.9c0,0,0,0.1,0,0.1l2,19.6l0.2,1.9v0l1.1,11v3.6C19.1-7.4,18.2-6.4,17-6.4z
		 M20.9-8.6v-2.7h8.5v4.9h-8.5L20.9-8.6z M49.3-6.4H31.2v-10h18.1V-6.4z"/>
	<path id="Path_134" class="st0" d="M40.3-15.1c-1.7,0-3.2,1.7-3.2,3.8s1.4,3.8,3.2,3.8s3.2-1.7,3.2-3.8S42-15.1,40.3-15.1z
		 M40.3-9.4c-0.7,0-1.4-0.9-1.4-2s0.6-2,1.4-2s1.4,0.9,1.4,2S41-9.4,40.3-9.4z"/>
</g>
</svg>
