<?xml version="1.0" encoding="utf-8"?>
<!-- Generator: Adobe Illustrator 26.2.1, SVG Export Plug-In . SVG Version: 6.00 Build 0)  -->
<svg version="1.1" id="Layer_1" xmlns="http://www.w3.org/2000/svg" xmlns:xlink="http://www.w3.org/1999/xlink" x="0px" y="0px"
	 viewBox="0 0 55.8 66.4" style="enable-background:new 0 0 55.8 66.4;" xml:space="preserve">
<style type="text/css">
	.st0{fill:#575858;}
</style>
<g id="medical" transform="translate(122.493 249.691)">
	<path id="Path_156" class="st0" d="M-94.6-213.4c-4.4,0-8.5,2.4-10.8,6.2c-0.3,0.5-0.1,1.1,0.3,1.3s1.1,0.1,1.3-0.3c0,0,0,0,0,0
		c2.9-5,9.3-6.7,14.3-3.7s6.7,9.3,3.7,14.3c-2.9,5-9.3,6.7-14.3,3.7c-3.6-2.1-5.6-6.2-5.1-10.4c0.1-0.5-0.3-1-0.8-1.1
		c-0.5-0.1-1,0.3-1.1,0.8c-0.9,6.8,3.9,13.1,10.7,14c6.8,0.9,13.1-3.9,14-10.7s-3.9-13.1-10.7-14C-93.5-213.3-94.1-213.4-94.6-213.4
		L-94.6-213.4z M-93.4-209.5h-2.3c-1,0-1.8,0.8-1.8,1.8v3.9h-3.9c-1,0-1.8,0.8-1.8,1.8v2.3c0,1,0.8,1.8,1.8,1.8h3.9v3.9
		c0,1,0.8,1.8,1.8,1.8h2.3c1,0,1.8-0.8,1.8-1.8v-3.9h3.9c1,0,1.8-0.8,1.8-1.8v-2.3c0-1-0.8-1.8-1.8-1.8h-3.9v-3.9
		C-91.7-208.7-92.5-209.5-93.4-209.5z M-88-201.9v1.9h-4.3c-0.8,0-1.4,0.6-1.4,1.4v4.3h-1.9v-4.3c0-0.8-0.6-1.4-1.4-1.4h-4.3v-1.9
		h4.3c0.8,0,1.4-0.6,1.4-1.4v-4.3h1.9v4.3c0,0.8,0.6,1.4,1.4,1.4H-88z M-80.2-241.6c0-1.2-1-2.3-2.3-2.3h-24.3c-1.2,0-2.3,1-2.3,2.3
		v2.3c0,1.2,1,2.3,2.3,2.3h24.3c1.2,0,2.3-1,2.3-2.3V-241.6z M-82.2-239.2c0,0.2-0.2,0.3-0.3,0.3h-24.3c-0.2,0-0.3-0.1-0.3-0.3v-2.3
		c0-0.2,0.2-0.3,0.3-0.3h24.3c0.2,0,0.3,0.1,0.3,0.3V-239.2z M-71.6-218.6h-22.9c-1,0-1.9-0.5-2.4-1.3l-1.6-2.4
		c-0.9-1.4-2.4-2.2-4.1-2.2h-12.2v-20.4c0-1.6,1.3-2.9,2.9-2.9h34.3c1.6,0,2.9,1.3,2.9,2.9v22.7c0,0.5,0.4,1,1,1c0.5,0,1-0.4,1-1
		v-22.7c0-2.7-2.2-4.9-4.9-4.9h-34.3c-2.7,0-4.9,2.2-4.9,4.9v20.4h-1c-2.7,0-4.9,2.2-4.9,4.9v31.4c0,2.7,2.2,4.9,4.9,4.9h46.1
		c2.7,0,4.9-2.2,4.9-4.9v-25.6C-66.7-216.4-68.9-218.6-71.6-218.6z M-68.7-188.1c0,1.6-1.3,2.9-2.9,2.9h-46c-1.6,0-2.9-1.3-2.9-2.9
		v-31.4c0-1.6,1.3-2.9,2.9-2.9h15.1c1,0,1.9,0.5,2.4,1.3l1.6,2.4c0.9,1.4,2.4,2.2,4.1,2.2h22.9c1.6,0,2.9,1.3,2.9,2.9L-68.7-188.1
		L-68.7-188.1z M-81.2-229.2H-108c-0.5,0-1,0.4-1,1c0,0.5,0.4,1,1,1h26.8c0.5,0,1-0.4,1-1C-80.2-228.8-80.6-229.2-81.2-229.2
		L-81.2-229.2z M-81.2-233.1H-108c-0.5,0-1,0.4-1,1c0,0.5,0.4,1,1,1h26.8c0.5,0,1-0.4,1-1C-80.2-232.6-80.6-233.1-81.2-233.1
		L-81.2-233.1z"/>
</g>
</svg>
