<?xml version="1.0" encoding="utf-8"?>
<!-- Generator: Adobe Illustrator 26.3.1, SVG Export Plug-In . SVG Version: 6.00 Build 0)  -->
<svg version="1.1" id="Layer_1" xmlns:svgjs="http://svgjs.com/svgjs"
	 xmlns="http://www.w3.org/2000/svg" xmlns:xlink="http://www.w3.org/1999/xlink" x="0px" y="0px" viewBox="0 0 512 512"
	 style="enable-background:new 0 0 512 512;" xml:space="preserve">
<style type="text/css">
	.st0{fill:#D4E1F4;}
	.st1{fill:#575858;}
</style>
<g>
	<g>
		<path class="st0" d="M292.9,51.9c-7.8-8.7-4.6-15.9,7.1-15.9h72c11.7,0,29.4-5.1,39.3-11.3s18-1.7,18,10v74.7
			c0,11.7-9.6,21.3-21.3,21.3h-68c-11.7,0-17.4-6.9-12.7-15.3s2.3-22.5-5.6-31.2L292.9,51.9z"/>
	</g>
	<path class="st0" d="M251.4,448.7c-52.7,0-107.6-9.7-146.1-39.9c34.1,55.6,101.8,84.5,171.9,84.5c107.2,0,194.1-86.9,194.1-194.1
		c0-6.4-0.4-12.7-1-18.8C444.6,377.3,356.5,448.7,251.4,448.7L251.4,448.7z"/>
	<path id="path14766_3_" class="st1" d="M257.2,512c123.1,0,225.4-90.7,243.2-209.1c4.3-28.2-38-34.5-42.2-6.3
		c-14.7,97.7-98.9,172.7-201,172.7c-53.6,0-102-20.7-138.3-54.5c-20.8-19.4-50,11.8-29.2,31.1C133.6,486.9,192.6,512,257.2,512
		L257.2,512z"/>
	<path id="path14758_3_" class="st1" d="M63.3,399.1c16.2-0.7,25.8-18.3,17.4-32.3c-1.9-3.3-3.6-6.5-5.3-9.9
		c-12-27.5-52.9-7-38.1,19.1c2.1,4.2,4.2,8.1,6.4,12.1C47.7,395.1,55.2,399.4,63.3,399.1z"/>
	<path id="path14748_3_" class="st1" d="M35.1,323.8c13.4,0.2,23.8-11.8,21.4-25c-1.7-10.6-2.5-21.5-2.5-32.6
		C54,153.8,144.7,63,257.2,63c51.7,0,98.7,19.3,134.5,51l-65.6,1.5c-11.8,0.5-20.9,10.4-20.4,22.2c0.5,11.5,9.9,20.4,21.4,20.4
		l112.2-2.7c11.7-0.3,21-10,20.8-21.8l-2.6-112.2C457.6,9.5,448,0,436.2,0s-21.3,9.5-21.3,21.3v0.9l1.3,56.3
		c-42.9-36.3-98.5-58.4-159-58.4C121.6,20.1,11.3,130.5,11.3,266c0,13.4,1.1,26.5,3.2,39.3C16,315.8,24.7,323.5,35.1,323.8
		L35.1,323.8z"/>
</g>
</svg>
