<?xml version="1.0" encoding="utf-8"?>
<!-- Generator: Adobe Illustrator 26.0.1, SVG Export Plug-In . SVG Version: 6.00 Build 0)  -->
<svg version="1.1" id="Capa_1" xmlns="http://www.w3.org/2000/svg" xmlns:xlink="http://www.w3.org/1999/xlink" x="0px" y="0px"
	 viewBox="0 0 512 512" style="enable-background:new 0 0 512 512;" xml:space="preserve">
<style type="text/css">
	.st0{fill:#671CC9;}
	.st1{fill:#384A57;}
</style>
<g>
	<g>
		<path class="st0" d="M256,125.5c-72.1,0-130.5,58.4-130.5,130.5S183.9,386.5,256,386.5S386.5,328.1,386.5,256
			S328.1,125.5,256,125.5L256,125.5z M256,316.2c-33.3,0-60.2-27-60.2-60.2s27-60.2,60.2-60.2s60.2,27,60.2,60.2
			S289.3,316.2,256,316.2z"/>
	</g>
	<g>
		<g>
			<path class="st1" d="M301.2,512h-90.4c-5.5,0-10-4.5-10-10v-32.1c-20.1-5.2-39.2-13.1-57-23.6L121.1,469
				c-3.9,3.9-10.2,3.9-14.1,0L43,405.1c-1.9-1.9-2.9-4.4-2.9-7.1s1.1-5.2,2.9-7.1l22.7-22.7c-10.6-17.8-18.5-37-23.6-57H10
				c-5.5,0-10-4.5-10-10v-90.4c0-5.5,4.5-10,10-10h32.1c5.2-20.1,13.1-39.2,23.6-57L43,121.1c-1.9-1.9-2.9-4.4-2.9-7.1
				s1.1-5.2,2.9-7.1L106.9,43c3.9-3.9,10.2-3.9,14.1,0l22.7,22.7c17.8-10.6,37-18.5,57-23.6V10c0-5.5,4.5-10,10-10h90.4
				c5.5,0,10,4.5,10,10v32.1c20.1,5.2,39.2,13.1,57,23.6L390.9,43c3.9-3.9,10.2-3.9,14.1,0l63.9,63.9c1.9,1.9,2.9,4.4,2.9,7.1
				s-1.1,5.2-2.9,7.1l-22.7,22.7c10.6,17.8,18.5,37,23.6,57H502c5.5,0,10,4.5,10,10v90.4c0,5.5-4.5,10-10,10h-32.1
				c-5.2,20.1-13.1,39.2-23.6,57l22.7,22.7c1.9,1.9,2.9,4.4,2.9,7.1s-1.1,5.2-2.9,7.1L405.1,469c-3.9,3.9-10.2,3.9-14.1,0
				l-22.7-22.7c-17.8,10.5-37,18.5-57,23.6V502C311.2,507.5,306.7,512,301.2,512L301.2,512z M220.8,492h70.4v-30
				c0-4.7,3.3-8.8,7.9-9.8c23.3-5.1,45.2-14.2,65.3-27c4-2.5,9.1-2,12.5,1.3l21.2,21.2l49.8-49.8l-21.2-21.2
				c-3.3-3.3-3.9-8.5-1.3-12.5c12.9-20,22-42,27-65.3c1-4.6,5.1-7.9,9.8-7.9h30v-70.4h-30c-4.7,0-8.8-3.3-9.8-7.9
				c-5.1-23.3-14.2-45.2-27-65.3c-2.5-4-2-9.1,1.3-12.5l21.2-21.2L398,64.2l-21.2,21.2c-3.3,3.3-8.5,3.9-12.5,1.3
				c-20-12.9-42-22-65.3-27c-4.6-1-7.9-5.1-7.9-9.8V20h-70.4v30c0,4.7-3.3,8.8-7.9,9.8c-23.3,5.1-45.2,14.2-65.3,27
				c-4,2.5-9.1,2-12.5-1.3L114,64.2L64.2,114l21.2,21.2c3.3,3.3,3.9,8.5,1.3,12.5c-12.9,20-22,42-27,65.3c-1,4.6-5.1,7.9-9.8,7.9H20
				v70.4h30c4.7,0,8.8,3.3,9.8,7.9c5.1,23.3,14.2,45.2,27,65.3c2.5,4,2,9.1-1.3,12.5L64.2,398l49.8,49.8l21.2-21.2
				c3.3-3.3,8.5-3.9,12.5-1.3c20,12.9,42,22,65.3,27c4.6,1,7.9,5.1,7.9,9.8L220.8,492L220.8,492z"/>
		</g>
	</g>
</g>
</svg>
