<?xml version="1.0" encoding="utf-8"?>
<!-- Generator: Adobe Illustrator 26.0.1, SVG Export Plug-In . SVG Version: 6.00 Build 0)  -->
<svg version="1.1" id="Capa_1" xmlns="http://www.w3.org/2000/svg" xmlns:xlink="http://www.w3.org/1999/xlink" x="0px" y="0px"
	 viewBox="0 0 512 512" style="enable-background:new 0 0 512 512;" xml:space="preserve">
<style type="text/css">
	.st0{fill:#671CC9;}
	.st1{fill:#384A57;}
</style>
<g>
	<g>
		<g>
			<g>
				<g>
					<g>
						<g>
							<path class="st0" d="M362,205.3V81.7L256,19.9L150,81.7v123.6l106,61.8L362,205.3z"/>
						</g>
					</g>
				</g>
			</g>
		</g>
	</g>
	<g>
		<path class="st1" d="M505.4,393.6l-27.4-10V274.1l27.4-10c5.2-1.9,7.9-7.6,6-12.8c-1.9-5.2-7.6-7.9-12.8-6L469,256.1l-102-59.4
			c-3.1-1.8-7-1.8-10.1,0l-101,58.9l-101-58.9c-3.1-1.8-7-1.8-10.1,0L43,256.1l-29.6-10.7c-5.2-1.9-10.9,0.8-12.8,6
			c-1.9,5.2,0.8,10.9,6,12.8l27.4,10v109.5l-27.4,10c-5.2,1.9-7.9,7.6-6,12.8c1.5,4.1,5.3,6.6,9.4,6.6c1.1,0,2.3-0.2,3.4-0.6
			l29.5-10.7l97,56.6v23.9c0,5.5,4.5,10,10,10c5.5,0,10-4.5,10-10v-23.8l96-56l96,56v23.8c0,5.5,4.5,10,10,10s10-4.5,10-10v-23.9
			l97-56.6l29.5,10.7c1.1,0.4,2.3,0.6,3.4,0.6c4.1,0,7.9-2.5,9.4-6.6C513.3,401.2,510.6,395.5,505.4,393.6L505.4,393.6z M54,272.8
			l96-56l96,56v112.1l-96,56l-96-56L54,272.8z M458,384.9l-96,56l-96-56V272.8l96-56l96,56V384.9z"/>
	</g>
</g>
</svg>
