<svg id="Layer_1" data-name="Layer 1" xmlns="http://www.w3.org/2000/svg" viewBox="0 0 60 60"><defs><style>.cls-1{fill:#671cc9;}.cls-2{fill:#384a57;}</style></defs><path class="cls-1" d="M60,28.82H31.18V0h1.28A27.53,27.53,0,0,1,60,27.54Z"/><path class="cls-2" d="M55.3,37.65h-.52a27.6,27.6,0,0,0,.51-5.3,1.17,1.17,0,0,0-1.17-1.17H28.82V5.88a1.17,1.17,0,0,0-1.17-1.17A27.65,27.65,0,1,0,40,57.09v1.74A1.17,1.17,0,0,0,41.18,60H55.3a1.17,1.17,0,0,0,1.17-1.17v-20A1.17,1.17,0,0,0,55.3,37.65ZM26.47,7.08V31.87L8.94,49.4A25.3,25.3,0,0,1,26.47,7.08Zm-15.87,44L28.13,33.53H52.92a24.71,24.71,0,0,1-.53,4.12h-1.8a1.17,1.17,0,0,0-1.17,1.17v2.36H45.88a1.18,1.18,0,0,0-1.17,1.17v2.36H41.18A1.17,1.17,0,0,0,40,45.88v2.36h-8.7l-3.2-6.41A1.17,1.17,0,0,0,26,42.88l3.53,7.06a1.17,1.17,0,0,0,1.05.65H40v3.85A25.3,25.3,0,0,1,10.6,51.05Zm31.75-4h2.36v10.6H42.35Zm4.71-3.53h2.36V57.66H47.06V43.53Zm7.07,14.13H51.76V40h2.37Z"/></svg>