<?xml version="1.0" encoding="utf-8"?>
<!-- Generator: Adobe Illustrator 26.0.1, SVG Export Plug-In . SVG Version: 6.00 Build 0)  -->
<svg version="1.1" id="Capa_1" xmlns="http://www.w3.org/2000/svg" xmlns:xlink="http://www.w3.org/1999/xlink" x="0px" y="0px"
	 viewBox="0 0 512 512" style="enable-background:new 0 0 512 512;" xml:space="preserve">
<style type="text/css">
	.st0{fill:#671CC9;}
	.st1{fill:#384A57;}
</style>
<g>
	<g>
		<g>
			<g>
				<g>
					<g>
						<path class="st0" d="M139.6,98.5v207.9H82.8V98.5L139.6,98.5z"/>
					</g>
				</g>
			</g>
		</g>
		<g>
			<g>
				<g>
					<g>
						<path class="st0" d="M82.8,356.7h56.8v56.8H82.8L82.8,356.7z"/>
					</g>
				</g>
			</g>
		</g>
		<g>
			<g>
				<g>
					<g>
						<g>
							<path class="st0" d="M284.4,98.5v207.9h-56.8V98.5H284.4z"/>
						</g>
					</g>
				</g>
			</g>
			<g>
				<g>
					<g>
						<g>
							<path class="st0" d="M227.6,356.7h56.8v56.8h-56.8L227.6,356.7z"/>
						</g>
					</g>
				</g>
			</g>
		</g>
		<g>
			<g>
				<g>
					<g>
						<g>
							<path class="st0" d="M429.2,98.5v207.9h-56.8V98.5L429.2,98.5z"/>
						</g>
					</g>
				</g>
			</g>
			<g>
				<g>
					<g>
						<g>
							<path class="st0" d="M372.4,356.7h56.8v56.8h-56.8V356.7z"/>
						</g>
					</g>
				</g>
			</g>
		</g>
	</g>
	<g>
		<g>
			<path class="st1" d="M440.9,0H71.1C47.8,0,28.8,19,28.8,42.3v427.3c0,23.3,19,42.3,42.3,42.3h369.8c23.3,0,42.3-19,42.3-42.3
				V42.3C483.2,19,464.2,0,440.9,0L440.9,0z M48.8,469.7V42.3C48.8,30,58.8,20,71.1,20h102.5v472H71.1C58.8,492,48.8,482,48.8,469.7
				L48.8,469.7z M193.6,20h124.8v472H193.6V20z M463.2,469.7c0,12.3-10,22.3-22.3,22.3H338.4V20h102.5c12.3,0,22.3,10,22.3,22.3
				V469.7z"/>
			<path class="st1" d="M119.6,46.3h-16.8c-5.5,0-10,4.5-10,10s4.5,10,10,10h16.8c5.5,0,10-4.5,10-10S125.1,46.3,119.6,46.3z"/>
			<path class="st1" d="M119.6,445.7h-16.8c-5.5,0-10,4.5-10,10s4.5,10,10,10h16.8c5.5,0,10-4.5,10-10S125.1,445.7,119.6,445.7z"/>
			<path class="st1" d="M264.4,46.3h-16.8c-5.5,0-10,4.5-10,10s4.5,10,10,10h16.8c5.5,0,10-4.5,10-10S269.9,46.3,264.4,46.3z"/>
			<path class="st1" d="M264.4,445.7h-16.8c-5.5,0-10,4.5-10,10s4.5,10,10,10h16.8c5.5,0,10-4.5,10-10S269.9,445.7,264.4,445.7z"/>
			<path class="st1" d="M409.2,46.3h-16.8c-5.5,0-10,4.5-10,10s4.5,10,10,10h16.8c5.5,0,10-4.5,10-10S414.7,46.3,409.2,46.3z"/>
			<path class="st1" d="M409.2,445.7h-16.8c-5.5,0-10,4.5-10,10s4.5,10,10,10h16.8c5.5,0,10-4.5,10-10S414.7,445.7,409.2,445.7z"/>
		</g>
	</g>
</g>
</svg>
