<?xml version="1.0" encoding="utf-8"?>
<!-- Generator: Adobe Illustrator 26.0.1, SVG Export Plug-In . SVG Version: 6.00 Build 0)  -->
<svg version="1.1" id="Layer_1" xmlns="http://www.w3.org/2000/svg" xmlns:xlink="http://www.w3.org/1999/xlink" x="0px" y="0px"
	 viewBox="0 0 512 512" style="enable-background:new 0 0 512 512;" xml:space="preserve">
<style type="text/css">
	.st0{fill-rule:evenodd;clip-rule:evenodd;fill:#671CC9;}
	.st1{fill:#384A57;}
	.st2{fill:#671CC9;}
</style>
<g>
	<g>
		<path class="st0" d="M136,462.1v-170H56v170c0,22,18,40,40,40S136,484.1,136,462.1z"/>
		<path class="st0" d="M376,292.1v170c0,22,18,40,40,40c22,0,40-18,40-40v-170H376z"/>
	</g>
	<g>
		<path class="st1" d="M502,192.1h-36v-40c13.3-0.5,13.2-19.5,0-20H366c-13.3,0.5-13.2,19.5,0,20v40h-60v-40
			c13.3-0.5,13.2-19.5,0-20H206c-13.3,0.5-13.2,19.5,0,20v40h-60v-40c13.3-0.5,13.2-19.5,0-20H46c-13.3,0.5-13.2,19.5,0,20v40H10
			c-5.5,0-10,4.5-10,10v40c0,5.5,4.5,10,10,10h36v210c2.5,66.3,97.5,66.2,100,0v-210h60v210c2.5,66.3,97.5,66.2,100,0v-210h60v210
			c2.5,66.3,97.5,66.2,100,0v-210h36c5.5,0,10-4.5,10-10v-40C512,196.5,507.5,192.1,502,192.1L502,192.1z M386,152.1h60v40h-60
			V152.1z M226,152.1h60v40h-60V152.1z M66,152.1h60v40H66V152.1z M126,462.1c-1.5,39.8-58.5,39.7-60,0v-210h60V462.1z M256,492.1
			c-16.5,0-30-13.5-30-30v-160h60v160C286,478.6,272.5,492.1,256,492.1z M286,282.1h-60v-30h60V282.1z M446,462.1
			c-1.5,39.8-58.5,39.7-60,0v-210h60V462.1z M492,232.1H20v-20h472V232.1z"/>
		<path class="st2" d="M306,112.1c22.1,0,40-17.9,40-40c-2-53-78-53-80,0C266,94.1,283.9,112.1,306,112.1z M306,52.1
			c11,0,20,9,20,20c-1,26.5-39,26.5-40,0C286,61,295,52.1,306,52.1z"/>
		<path class="st2" d="M386.8,60.1c16.5,0,30-13.5,30-30c-1.5-39.7-58.5-39.7-60,0C356.8,46.6,370.3,60.1,386.8,60.1z M386.8,20.1
			c5.5,0,10,4.5,10,10c-0.5,13.2-19.5,13.2-20,0C376.8,24.5,381.3,20.1,386.8,20.1z"/>
	</g>
</g>
</svg>
